<svg width="85" height="20" viewBox="0 0 85 20" fill="none" xmlns="http://www.w3.org/2000/svg">
<path opacity="0.8" d="M0 18.6895H84.3238" stroke="#AFAFAF" stroke-width="2" stroke-dasharray="6 6"/>
<path d="M12.6902 4.63599L8.58984 9.51888V16.5878H75.8661V9.51888L65.8393 4.9876L60.5025 7.61578L56.549 3.35971C55.2693 1.98209 53.2029 1.68171 51.584 2.63798L48.3733 4.53444L42.8747 3.53755L37.0527 9.51888L25.8939 3.53755L21.2039 6.16572L18.0644 3.94343C16.3656 2.74097 14.0286 3.04214 12.6902 4.63599Z" fill="url(#paint0_linear_235_6312)"/>
<path d="M8.58984 9.51888L13.2823 3.93092C14.2861 2.73553 16.0388 2.50966 17.3129 3.4115L19.6572 5.0709C20.602 5.73966 21.8473 5.80521 22.8571 5.23934L24.4594 4.34144C25.353 3.84066 26.4404 3.83047 27.3432 4.31442L35.0615 8.45155C36.2405 9.08352 37.6955 8.85852 38.6285 7.89994L41.761 4.68179C42.4572 3.96647 43.4637 3.64433 44.4459 3.8224L47.2742 4.33517C47.9831 4.46371 48.7147 4.33278 49.3351 3.96633L52.2772 2.22849C53.4914 1.51129 55.0412 1.73657 56.001 2.76978L58.9825 5.97954C59.8846 6.95061 61.3169 7.21469 62.5059 6.62914L64.5689 5.61322C65.3733 5.2171 66.3127 5.20153 67.1297 5.57077L75.8661 9.51888" stroke="#FF5B5B" stroke-width="3" stroke-linecap="round"/>
<defs>
<linearGradient id="paint0_linear_235_6312" x1="42.228" y1="1" x2="42.228" y2="16.5878" gradientUnits="userSpaceOnUse">
<stop stop-color="#FF5B5B"/>
<stop offset="1" stop-color="#D9D9D9" stop-opacity="0"/>
</linearGradient>
</defs>
</svg>
